<?xml version="1.0" standalone="no"?>
<!DOCTYPE svg PUBLIC "-//W3C//DTD SVG 20010904//EN"
 "http://www.w3.org/TR/2001/REC-SVG-20010904/DTD/svg10.dtd">
<svg
version="1.0"
xmlns="http://www.w3.org/2000/svg"
width="72"
height="40"
viewBox="0 0 500.000000 500.000000"
preserveAspectRatio="xMidYMid meet"
>
<g
transform="translate(-600.000000,1150.000000) scale(0.35000,-0.35000)"
fill="#000000"
stroke="none"
>
<path
d="M2170 2868 c0 -12 159 -478 206 -605 11 -31 21 -43 36 -43 14 0 18 5
14 18 -4 9 -55 156 -114 327 -80 228 -113 311 -125 313 -9 2 -17 -3 -17 -10z"
/>
<path
d="M2887 2625 c-22 -7 -49 -23 -62 -35 l-23 -22 -14 29 c-12 26 -18 28
-78 31 -73 3 -143 -16 -148 -41 -3 -13 4 -17 27 -17 l31 0 0 -126 c0 -117 -2
-127 -22 -143 -39 -32 -15 -41 112 -41 125 0 154 10 112 38 -20 13 -22 23 -22
107 0 79 3 96 21 119 26 33 60 31 70 -4 4 -14 7 -71 8 -127 1 -127 7 -133 123
-133 85 0 101 10 69 44 -19 20 -21 34 -21 133 0 62 -4 123 -10 137 -19 51
-104 76 -173 51z"
/>
<path
d="M1633 2615 c-17 -7 -39 -26 -49 -40 -18 -27 -17 -28 5 -46 13 -11 33
-19 45 -19 27 0 66 27 66 45 0 20 44 47 64 39 20 -8 36 -44 36 -82 0 -27 0
-27 -78 -28 -118 -1 -192 -50 -192 -126 0 -96 145 -142 233 -75 l34 26 27 -27
c24 -24 34 -27 95 -27 54 0 74 4 90 19 27 24 27 40 1 33 -11 -3 -23 0 -27 6
-5 7 -10 62 -13 123 -6 126 -14 142 -85 175 -50 23 -203 26 -252 4z m162 -176
c13 -20 -5 -99 -26 -109 -25 -14 -55 2 -61 33 -5 27 8 68 25 79 18 11 55 10
62 -3z"
/>
<path
d="M3296 2399 c-37 -29 -37 -89 0 -118 47 -37 115 -21 133 31 27 78 -66
140 -133 87z"
/>
</g>
</svg>